# xmcd CD database file
#
# Track frame offsets:
#	150
#	15045
#	30995
#	49455
#	68012
#	84837
#	101880
#	117005
#	132727
#	152105
#	173552
#	186737
#	198402
#	210150
#	222767
#	235395
#
# Disc length: 3340 seconds
#
# Revision: 1
# Processed by: cddbd v1.5.2PL0 Copyright (c) Steve Scherf et al.
# Submitted via: CDex 1.75
#
DISCID=d40d0a10
DTITLE=Marty Robbins - My Elusive Dreams
DYEAR=1991
DGENRE=Country
TTITLE0=Some Memories Just Won't Die
TTITLE1=My Woman, My Woman, My Wife
TTITLE2=Good Hearted Woman
TTITLE3=Air That I Breathe, The
TTITLE4=My Elusive Dreams
TTITLE5=Oh, My Papa
TTITLE6=She's Made Of Faith
TTITLE7=I'm Just Here To Get My Baby Out Of Jail
TTITLE8=El Paso City
TTITLE9=Sometimes When We Touch
TTITLE10=Return To Me
TTITLE11=Among My Souvenirs
TTITLE12=18 Yellow Roses
TTITLE13=Don't Let Me Touch You
TTITLE14=Honkytonk Man
TTITLE15=Performer, The
EXTD=YEAR: 1991
EXTT0=
EXTT1=
EXTT2=
EXTT3=
EXTT4=
EXTT5=
EXTT6=
EXTT7=
EXTT8=
EXTT9=
EXTT10=
EXTT11=
EXTT12=
EXTT13=
EXTT14=
EXTT15=
PLAYORDER=
